{"glyphs":{":":{"x_min":0,"x_max":346,"ha":346,"o":"m 223 434 q 223 448 218 460 q 212 472 203 481 q 194 490 182 495 q 169 500 156 500 q 143 500 131 495 q 119 490 110 481 q 101 472 95 460 q 90 448 90 434 q 90 420 95 408 q 101 396 110 387 q 119 377 131 372 q 143 367 156 367 q 169 367 182 372 q 194 377 203 387 q 212 396 218 408 q 223 420 223 434 z m 223 55 q 223 68 218 80 q 212 92 203 101 q 194 110 182 116 q 169 121 156 121 q 143 121 131 116 q 119 110 110 101 q 101 92 95 80 q 90 68 90 55 q 90 41 95 29 q 101 17 110 8 q 119 -1 131 -7 q 143 -12 156 -12 q 169 -12 182 -7 q 194 -1 203 8 q 212 17 218 29 q 223 41 223 55 z"},"$":{"x_min":0,"x_max":520,"ha":520,"o":"m 468 171 q 468 194 463 213 q 459 232 449 250 q 439 267 424 284 q 408 301 386 319 q 363 338 334 360 q 305 381 267 408 l 267 666 q 305 662 332 650 q 359 637 376 616 q 394 596 403 567 q 412 539 415 503 l 435 503 l 435 655 q 394 670 369 679 q 344 688 337 691 q 323 694 305 697 q 288 699 267 700 l 267 747 l 235 747 l 235 700 q 209 699 178 689 q 146 679 119 659 q 92 640 73 609 q 55 579 55 535 q 55 498 67 469 q 79 440 102 416 q 125 391 159 367 q 192 343 235 315 l 235 19 q 161 26 122 62 q 83 98 77 170 l 55 170 l 55 26 q 73 18 95 11 q 117 4 141 -1 q 165 -7 189 -10 q 213 -14 235 -15 l 235 -79 l 267 -79 l 267 -15 q 306 -13 342 1 q 378 15 406 39 q 434 63 451 96 q 468 130 468 171 z m 235 430 q 221 439 204 451 q 186 464 171 481 q 155 498 145 519 q 134 541 134 567 q 134 596 145 615 q 156 633 172 644 q 188 655 205 659 q 223 664 235 666 z m 387 146 q 387 123 381 105 q 375 87 364 73 q 354 59 341 49 q 328 40 315 33 q 301 26 289 23 q 276 20 267 19 l 267 293 q 296 272 318 255 q 341 238 356 221 q 372 205 379 187 q 387 168 387 146 z"},"?":{"x_min":0,"x_max":462,"ha":462,"o":"m 420 544 q 420 582 406 611 q 392 641 366 662 q 341 682 306 693 q 271 704 230 704 q 186 704 151 692 q 117 680 94 659 q 71 639 59 613 q 47 586 47 558 q 47 533 54 518 q 61 502 70 493 q 79 484 88 481 q 98 478 103 478 q 110 478 117 481 q 125 484 130 489 q 136 495 140 503 q 144 511 144 522 q 144 531 139 542 q 134 552 128 564 q 122 575 117 587 q 112 599 112 609 q 112 620 118 632 q 124 644 135 654 q 147 664 166 670 q 184 676 208 676 q 228 676 249 668 q 270 661 287 644 q 304 627 315 601 q 326 574 326 536 q 326 516 322 495 q 317 474 310 454 q 303 434 294 416 q 286 398 278 385 q 261 357 249 330 q 236 303 228 276 q 220 249 215 220 q 210 192 209 162 l 231 162 q 232 198 240 224 q 247 250 260 274 q 274 298 294 322 q 314 346 341 376 q 353 389 366 406 q 380 423 392 444 q 404 465 412 490 q 420 515 420 544 z m 280 43 q 280 56 275 66 q 270 77 262 84 q 254 92 244 96 q 234 100 224 100 q 213 100 202 96 q 192 92 184 84 q 176 76 171 66 q 166 55 166 43 q 166 29 171 19 q 176 8 184 1 q 192 -6 203 -10 q 213 -14 224 -14 q 234 -14 244 -10 q 253 -7 261 0 q 270 8 275 18 q 280 29 280 43 z"},"<":{"x_min":0,"x_max":804,"ha":804,"o":"m 702 39 l 702 101 l 166 300 l 702 499 l 702 561 l 102 331 l 102 269 z"},"'":{"x_min":0,"x_max":188,"ha":188,"o":"m 145 650 q 145 659 142 668 q 139 678 132 686 q 125 694 115 699 q 105 704 91 704 q 67 704 55 689 q 43 675 43 643 q 43 632 45 611 q 48 590 54 558 l 81 408 l 104 408 l 131 557 q 138 595 141 618 q 145 641 145 650 z"},"=":{"x_min":0,"x_max":574,"ha":574,"o":"m 540 320 l 540 386 l 38 386 l 38 320 z m 540 120 l 540 186 l 38 186 l 38 120 z"},"a":{"x_min":0,"x_max":462,"ha":462,"o":"m 461 67 l 461 96 q 447 82 438 74 q 430 66 424 62 q 418 58 414 56 q 410 55 406 55 q 396 55 391 61 q 386 66 384 80 q 383 87 382 108 q 381 129 381 161 l 381 320 q 381 356 375 386 q 370 415 354 436 q 337 456 306 467 q 275 478 225 478 q 192 478 161 470 q 130 462 107 448 q 83 433 69 411 q 55 389 55 362 q 55 338 66 326 q 78 313 98 313 q 117 313 129 326 q 141 339 140 361 l 139 391 q 141 415 159 432 q 177 448 209 448 q 231 448 247 442 q 264 436 274 421 q 285 407 291 384 q 296 360 296 327 l 296 308 q 241 289 200 272 q 160 254 131 238 q 102 222 84 207 q 65 191 55 175 q 45 160 41 144 q 37 127 37 110 q 37 83 45 61 q 53 39 68 24 q 83 8 103 0 q 123 -9 148 -9 q 166 -9 180 -6 q 194 -3 209 5 q 225 13 245 28 q 265 43 296 67 q 296 45 300 30 q 305 16 312 7 q 319 -2 329 -5 q 339 -9 350 -9 q 404 -9 461 67 z m 296 100 q 264 74 239 61 q 214 48 194 49 q 179 49 166 56 q 153 62 144 74 q 134 85 129 100 q 123 116 123 134 q 123 151 128 167 q 133 183 151 200 q 168 217 203 236 q 237 255 296 278 z"},"L":{"x_min":0,"x_max":635,"ha":635,"o":"m 614 187 l 596 190 q 586 167 578 150 q 570 133 561 120 q 552 107 542 96 q 532 85 519 74 q 508 64 496 59 q 483 53 467 50 q 450 46 427 45 q 404 44 373 44 l 303 44 q 281 44 264 46 q 248 49 238 58 q 227 66 222 83 q 217 101 217 130 l 217 583 q 217 612 224 629 q 231 646 245 655 q 258 664 277 667 q 295 669 318 669 l 318 688 l 19 688 l 19 669 q 42 669 60 667 q 79 664 92 655 q 105 646 113 629 q 120 612 120 583 l 120 105 q 120 76 113 59 q 105 42 92 33 q 79 24 60 21 q 42 19 19 19 l 19 0 l 554 0 z"},"3":{"x_min":0,"x_max":513,"ha":513,"o":"m 438 226 q 438 268 425 297 q 412 327 392 348 q 373 369 350 382 q 328 396 310 404 q 324 413 340 426 q 356 439 370 456 q 384 473 393 493 q 402 514 402 538 q 402 568 390 594 q 379 619 359 637 q 339 656 311 666 q 283 676 250 676 q 217 676 187 667 q 157 657 131 637 q 104 618 84 587 q 63 557 50 514 l 65 509 q 94 565 130 590 q 167 615 211 615 q 233 615 254 608 q 274 601 290 587 q 306 574 316 555 q 325 536 325 512 q 325 480 316 457 q 306 434 286 415 q 265 396 233 379 q 201 363 156 345 l 159 333 q 166 334 171 334 q 176 334 181 334 q 269 334 316 293 q 363 252 363 175 q 363 138 352 111 q 340 83 322 65 q 303 47 280 38 q 256 29 231 29 q 211 29 192 37 q 173 46 155 56 q 136 67 118 75 q 101 84 84 84 q 68 84 59 75 q 49 65 49 50 q 49 41 53 31 q 57 21 69 13 q 81 4 102 -1 q 124 -7 159 -7 q 233 -7 286 15 q 338 37 372 71 q 406 104 422 146 q 438 187 438 226 z"},";":{"x_min":0,"x_max":346,"ha":346,"o":"m 223 434 q 223 448 218 460 q 212 472 203 481 q 194 490 182 495 q 169 500 156 500 q 143 500 131 495 q 119 490 110 481 q 101 472 95 460 q 90 448 90 434 q 90 420 95 408 q 101 396 110 387 q 119 377 131 372 q 143 367 156 367 q 169 367 182 372 q 194 377 203 387 q 212 396 218 408 q 223 420 223 434 z m 229 10 q 229 34 222 51 q 215 68 204 80 q 193 91 180 96 q 167 102 155 102 q 126 102 108 87 q 90 71 90 44 q 90 30 95 21 q 101 11 109 4 q 118 -2 127 -5 q 137 -8 145 -8 q 152 -8 157 -7 q 162 -7 165 -6 q 169 -5 173 -5 q 176 -4 181 -4 q 187 -4 188 -7 q 190 -10 190 -16 q 190 -28 184 -42 q 179 -57 168 -71 q 158 -85 143 -99 q 128 -112 109 -123 l 120 -143 q 138 -134 157 -120 q 176 -105 192 -85 q 208 -65 219 -41 q 229 -17 229 10 z"},"J":{"x_min":0,"x_max":405,"ha":405,"o":"m 398 670 l 398 688 l 104 688 l 104 670 l 128 670 q 138 670 148 667 q 159 665 167 661 q 176 657 183 652 q 190 647 193 642 q 199 632 201 615 q 203 597 203 567 l 203 97 q 203 76 199 61 q 196 46 190 37 q 185 28 178 24 q 171 20 165 20 q 154 20 148 27 q 141 34 136 45 q 131 55 126 68 q 122 80 115 91 q 108 101 98 108 q 88 115 73 115 q 63 115 54 112 q 45 109 38 103 q 31 96 26 86 q 22 76 22 62 q 22 47 28 33 q 35 19 48 8 q 61 -3 80 -10 q 99 -16 124 -16 q 140 -16 159 -12 q 178 -9 198 1 q 217 11 236 28 q 254 45 268 72 q 283 100 291 138 q 300 177 300 230 l 300 567 q 300 627 312 645 q 323 657 337 664 q 352 670 373 670 z"},"V":{"x_min":0,"x_max":751,"ha":751,"o":"m 738 670 l 738 688 l 526 688 l 526 670 q 545 667 557 663 q 569 659 576 655 q 583 651 587 647 q 591 643 594 638 q 603 625 596 601 q 590 578 575 540 l 413 140 l 237 544 q 220 583 215 607 q 211 631 220 645 q 227 656 243 661 q 260 667 290 670 l 290 688 l 9 688 l 9 670 q 33 667 48 663 q 63 658 74 649 q 79 645 83 642 q 87 639 92 632 q 97 625 103 613 q 110 600 119 578 l 376 -16 l 395 -16 l 635 571 q 656 623 683 647 q 692 656 706 662 q 720 667 738 670 z"},"\"":{"x_min":0,"x_max":424,"ha":424,"o":"m 356 650 q 356 672 343 688 q 329 704 305 704 q 280 704 267 690 q 253 675 253 643 q 253 631 256 610 q 259 588 265 556 l 292 408 l 317 408 l 345 556 q 352 594 354 617 q 356 640 356 650 z m 170 649 q 170 674 155 689 q 141 704 118 704 q 96 704 82 691 q 68 677 68 643 q 68 631 70 610 q 73 589 79 558 l 107 408 l 128 408 l 156 557 q 163 593 166 616 q 170 639 170 649 z"},"7":{"x_min":0,"x_max":513,"ha":513,"o":"m 455 645 l 455 662 l 86 662 l 28 515 l 44 506 q 55 525 66 541 q 77 556 89 566 q 101 576 116 582 q 130 587 150 587 l 377 587 l 182 0 l 247 0 z"},"S":{"x_min":0,"x_max":578,"ha":578,"o":"m 523 176 q 523 218 503 255 q 484 292 449 319 q 431 333 398 353 q 366 373 317 399 q 266 426 233 447 q 200 468 180 486 q 161 503 154 521 q 146 538 146 558 q 146 580 156 599 q 165 618 181 633 q 198 647 220 656 q 242 664 267 664 q 303 664 336 651 q 368 639 394 614 q 419 588 436 551 q 453 514 458 466 l 477 466 l 477 704 l 458 704 q 453 682 445 674 q 437 666 425 666 q 414 666 399 672 q 384 678 365 685 q 345 692 321 698 q 296 704 266 704 q 220 704 183 689 q 146 675 120 650 q 94 625 80 592 q 66 560 66 523 q 66 491 74 465 q 83 439 104 415 q 126 390 166 363 q 205 335 266 301 q 312 275 343 256 q 375 237 394 219 q 414 200 423 181 q 432 162 432 136 q 432 114 423 93 q 413 73 395 57 q 377 42 352 33 q 326 24 295 24 q 258 24 224 35 q 189 45 162 69 q 134 92 115 130 q 96 167 90 220 l 72 220 l 72 -16 l 90 -16 q 93 6 101 15 q 108 23 121 23 q 133 23 150 17 q 167 11 190 4 q 213 -4 242 -10 q 271 -16 306 -16 q 354 -16 394 -1 q 434 14 462 40 q 491 66 507 101 q 523 136 523 176 z"},"}":{"x_min":0,"x_max":480,"ha":480,"o":"m 424 232 l 424 264 q 397 268 372 277 q 347 286 328 300 q 309 314 298 335 q 286 355 286 382 l 286 531 q 286 564 276 587 q 265 611 248 627 q 230 643 208 653 q 186 662 161 667 q 137 672 113 673 q 88 675 68 675 l 68 654 q 97 650 122 641 q 148 632 167 617 q 187 602 198 580 q 209 559 209 532 l 209 398 q 209 367 217 346 q 225 324 238 309 q 251 294 270 285 q 288 275 308 269 q 329 263 351 258 q 374 254 395 249 q 373 244 351 239 q 329 234 308 228 q 288 221 270 212 q 251 202 238 187 q 225 172 217 151 q 209 129 209 98 l 209 -36 q 209 -63 198 -84 q 187 -105 167 -121 q 148 -136 122 -145 q 97 -155 68 -158 l 68 -179 q 88 -179 113 -178 q 137 -176 161 -171 q 186 -166 208 -156 q 230 -146 248 -130 q 265 -114 276 -91 q 286 -67 286 -34 l 286 114 q 286 141 298 161 q 309 181 328 196 q 347 210 372 219 q 397 228 424 232 z"},"Z":{"x_min":0,"x_max":635,"ha":635,"o":"m 606 182 l 590 185 q 576 141 560 113 q 545 84 527 70 q 493 42 428 42 l 146 42 l 598 688 l 89 688 l 75 516 l 94 516 q 98 541 103 559 q 107 576 112 589 q 117 601 122 609 q 128 617 135 623 q 150 636 173 642 q 195 648 235 648 l 454 648 l 14 19 l 14 0 l 574 0 z"},"x":{"x_min":0,"x_max":520,"ha":520,"o":"m 508 0 l 508 19 q 493 20 479 24 q 464 27 460 32 q 450 42 443 50 q 436 57 429 64 q 423 72 416 81 q 409 91 399 106 l 283 272 l 346 358 q 364 383 378 399 q 392 416 404 426 q 417 436 430 440 q 442 445 458 446 l 458 465 l 301 465 l 301 446 q 316 446 324 441 q 333 437 335 431 q 338 425 337 418 q 335 411 332 405 l 263 305 l 197 409 q 194 414 194 420 q 193 427 197 433 q 201 439 209 443 q 218 447 233 446 l 233 465 l 14 465 l 14 446 q 31 445 43 442 q 55 440 66 432 q 78 424 92 408 q 105 392 124 364 l 212 236 l 114 106 q 94 80 81 63 q 67 47 57 37 q 46 28 37 24 q 28 20 18 19 l 18 0 l 170 0 l 170 19 q 150 20 140 25 q 130 31 126 39 q 123 47 125 55 q 126 64 132 71 l 233 206 l 329 64 q 333 59 333 52 q 334 44 331 37 q 327 29 317 24 q 307 19 288 19 l 288 0 z"},")":{"x_min":0,"x_max":346,"ha":346,"o":"m 290 250 q 290 305 279 354 q 267 404 248 447 q 229 490 203 526 q 178 563 151 592 q 124 621 96 643 q 69 665 45 678 l 31 662 q 58 643 81 621 q 104 600 123 573 q 142 546 157 514 q 171 481 182 441 q 192 400 197 350 q 202 300 202 239 q 202 179 196 131 q 190 83 179 46 q 167 8 152 -22 q 136 -52 117 -76 q 98 -100 76 -121 q 54 -141 31 -160 l 41 -175 q 95 -144 141 -101 q 187 -58 220 -4 q 253 49 271 113 q 290 177 290 250 z"},"&":{"x_min":0,"x_max":853,"ha":853,"o":"m 798 124 l 779 137 q 776 127 771 115 q 765 102 754 90 q 744 78 727 70 q 710 62 686 62 q 660 62 637 72 q 614 82 595 97 q 576 111 561 128 q 545 145 534 157 q 562 192 587 230 q 612 267 635 308 q 657 349 672 371 q 687 394 701 404 q 714 415 729 418 q 744 421 765 424 l 765 443 l 551 443 l 551 424 q 554 424 562 422 q 570 419 578 413 q 586 407 593 396 q 599 385 599 367 q 599 294 510 187 q 438 284 375 397 q 398 409 427 426 q 456 442 482 464 q 507 486 525 515 q 542 543 542 580 q 542 604 533 626 q 524 649 507 666 q 490 683 464 694 q 438 704 405 704 q 374 704 342 694 q 311 685 285 664 q 260 644 244 612 q 228 580 228 536 q 228 513 232 491 q 237 470 243 450 q 250 431 257 415 q 264 398 270 385 q 249 374 225 360 q 202 346 178 329 q 155 312 133 291 q 112 271 95 247 q 79 223 69 195 q 59 167 59 136 q 59 108 71 81 q 82 54 105 32 q 127 11 162 -3 q 196 -16 241 -16 q 283 -16 317 -6 q 351 5 378 20 q 405 35 426 52 q 447 69 463 83 q 477 68 495 51 q 514 33 536 18 q 558 3 584 -6 q 611 -16 641 -16 q 681 -16 709 -1 q 737 13 755 35 q 773 57 784 81 q 794 105 798 124 z m 483 582 q 483 549 469 524 q 456 500 436 481 q 417 463 395 451 q 374 438 358 431 q 351 446 344 464 q 336 481 330 500 q 323 520 319 539 q 315 559 315 576 q 315 583 319 599 q 322 614 332 630 q 342 645 360 656 q 377 668 405 668 q 420 668 434 662 q 448 656 459 645 q 470 633 477 617 q 483 602 483 582 z m 436 112 q 423 102 408 90 q 393 78 375 68 q 357 59 337 52 q 316 46 293 46 q 261 46 237 58 q 213 70 197 89 q 181 108 173 133 q 165 157 165 182 q 165 218 178 246 q 191 274 210 294 q 229 314 250 328 q 271 342 286 350 q 303 319 316 294 q 330 268 343 246 q 355 224 379 191 q 402 159 436 112 z"},"_":{"x_min":0,"x_max":500,"ha":500,"o":"m 500 -117 l 500 -80 l 0 -80 l 0 -117 z"},"v":{"x_min":0,"x_max":520,"ha":520,"o":"m 511 446 l 511 465 l 359 465 l 359 446 q 373 446 382 445 q 391 444 396 442 q 401 440 404 438 q 407 436 408 434 q 414 426 412 413 q 409 400 400 379 l 291 112 l 183 368 q 172 394 173 410 q 173 426 183 437 q 188 442 195 444 q 203 446 213 446 l 228 446 l 228 465 l 8 465 l 8 446 q 21 443 30 442 q 39 440 43 438 q 50 434 56 428 q 62 423 68 417 q 73 410 78 401 q 83 392 89 379 l 256 -15 l 277 -15 l 442 385 q 450 403 457 416 q 465 428 473 436 q 480 440 489 443 q 498 445 511 446 z"},"O":{"x_min":0,"x_max":751,"ha":751,"o":"m 710 348 q 710 399 698 446 q 686 493 665 532 q 643 572 613 604 q 583 635 546 658 q 510 680 468 692 q 426 704 381 704 q 332 704 287 692 q 243 680 204 657 q 166 634 135 602 q 104 570 82 531 q 60 491 48 444 q 36 397 36 346 q 36 265 62 198 q 88 131 134 84 q 179 36 240 10 q 302 -16 372 -16 q 420 -16 464 -4 q 507 9 545 32 q 583 55 613 88 q 644 121 665 161 q 687 202 698 249 q 710 296 710 348 z m 595 335 q 595 253 578 194 q 562 135 532 96 q 502 57 461 38 q 420 20 371 20 q 318 21 277 45 q 236 69 209 112 q 181 155 167 216 q 153 276 153 349 q 153 423 167 482 q 182 542 209 583 q 237 624 278 646 q 318 668 370 668 q 427 667 469 645 q 512 623 540 580 q 568 537 582 475 q 596 414 595 335 z"},"(":{"x_min":0,"x_max":346,"ha":346,"o":"m 310 -162 q 271 -134 239 -99 q 207 -63 185 -14 q 163 35 151 102 q 139 169 139 261 q 139 321 145 369 q 151 417 163 454 q 174 492 189 522 q 205 551 224 575 q 243 600 265 620 q 287 640 310 659 l 300 675 q 246 643 201 600 q 155 558 122 504 q 89 451 71 387 q 52 323 52 250 q 52 195 63 146 q 75 96 94 53 q 113 10 138 -26 q 163 -63 190 -92 q 218 -122 245 -144 q 273 -166 297 -179 z"},"C":{"x_min":0,"x_max":694,"ha":694,"o":"m 657 161 l 642 172 q 612 129 585 101 q 558 73 530 57 q 503 41 474 35 q 445 29 411 29 q 353 29 305 49 q 258 68 224 107 q 190 146 171 202 q 153 259 153 333 q 153 419 171 482 q 189 545 221 586 q 254 628 299 648 q 343 668 396 668 q 436 668 471 657 q 506 646 535 622 q 564 598 587 561 q 610 523 626 470 l 642 470 l 626 704 l 608 704 q 602 680 591 668 q 580 656 566 656 q 558 656 544 663 q 530 671 508 680 q 486 689 457 697 q 427 704 388 704 q 335 704 289 691 q 242 677 203 653 q 164 628 133 594 q 103 560 81 519 q 60 478 48 431 q 37 384 37 334 q 37 264 60 200 q 83 136 125 88 q 168 41 231 12 q 293 -16 372 -16 q 421 -16 462 -5 q 503 5 538 27 q 573 49 602 83 q 631 116 657 161 z"},"W":{"x_min":0,"x_max":982,"ha":982,"o":"m 973 670 l 973 688 l 768 688 l 768 670 q 792 670 809 665 q 826 661 836 648 q 841 641 843 632 q 844 623 842 610 q 840 597 835 580 q 830 563 822 540 l 691 160 l 558 535 q 547 567 542 589 q 536 611 536 625 q 536 647 550 658 q 563 670 591 670 l 609 670 l 609 688 l 341 688 l 341 670 q 363 670 375 666 q 387 661 397 653 q 408 644 419 624 q 430 604 440 582 q 449 560 457 538 q 465 516 469 503 q 473 490 473 489 l 359 160 l 224 547 q 214 575 209 593 q 205 610 203 620 q 202 631 203 636 q 205 642 207 647 q 219 670 256 670 l 268 670 l 268 688 l 14 688 l 14 670 q 59 670 76 648 q 81 645 84 640 q 87 636 91 627 q 96 618 102 601 q 108 584 118 556 l 322 -16 l 341 -16 l 497 424 l 653 -16 l 674 -16 l 865 540 q 876 573 885 594 q 894 616 898 624 q 906 638 914 647 q 922 656 932 661 q 941 667 951 668 q 961 670 973 670 z"},"A":{"x_min":0,"x_max":747,"ha":747,"o":"m 739 0 l 739 19 q 717 21 702 25 q 687 29 674 41 q 661 53 648 74 q 636 96 621 132 l 382 704 l 364 704 l 122 137 q 110 109 99 87 q 87 66 74 51 q 62 37 46 29 q 30 21 8 19 l 8 0 l 225 0 l 225 19 q 189 22 171 30 q 153 37 148 50 q 143 62 147 80 q 152 98 162 121 l 209 231 l 476 231 l 517 132 q 526 111 532 91 q 539 71 537 55 q 534 40 519 30 q 503 20 468 19 l 468 0 z m 462 268 l 225 268 l 345 547 z"},"f":{"x_min":0,"x_max":346,"ha":346,"o":"m 452 635 q 452 652 440 668 q 429 684 410 696 q 392 708 369 715 q 346 722 324 722 q 316 722 298 720 q 281 718 259 710 q 238 703 215 688 q 191 673 172 648 q 153 623 141 586 q 129 548 129 496 l 129 465 l 38 465 l 38 428 l 129 428 l 129 123 q 129 101 128 86 q 127 72 125 62 q 123 53 118 47 q 114 41 108 35 q 97 25 85 22 q 74 19 62 19 l 41 19 l 41 0 l 321 0 l 321 19 l 279 19 q 245 19 229 41 q 221 49 217 70 q 214 91 214 123 l 214 428 l 334 428 l 334 465 l 214 465 l 214 498 q 214 547 216 582 q 218 618 225 640 q 232 663 246 673 q 260 684 284 684 q 302 684 314 677 q 327 670 337 660 q 347 650 354 638 q 362 626 371 616 q 379 606 388 599 q 398 592 411 593 q 420 593 427 597 q 435 601 440 607 q 446 613 449 621 q 452 628 452 635 z"},"Q":{"x_min":0,"x_max":751,"ha":751,"o":"m 711 344 q 711 423 685 489 q 659 555 614 603 q 568 651 508 677 q 448 704 379 704 q 331 704 286 692 q 242 680 204 657 q 166 635 135 603 q 104 571 82 531 q 60 491 48 444 q 36 397 36 345 q 36 290 49 237 q 62 184 91 137 q 121 91 168 54 q 215 17 283 -7 q 316 -43 364 -78 q 411 -112 467 -139 q 523 -167 584 -184 q 646 -201 707 -204 l 707 -187 q 667 -184 633 -172 q 599 -160 569 -138 q 538 -116 511 -83 q 483 -51 458 -7 q 515 10 562 44 q 608 77 642 123 q 675 168 693 225 q 711 281 711 344 z m 595 331 q 595 258 580 200 q 565 142 537 102 q 508 62 467 40 q 425 19 372 19 q 319 20 278 43 q 237 67 209 110 q 181 153 167 213 q 153 272 153 345 q 153 423 168 483 q 183 543 211 584 q 240 625 280 645 q 321 666 372 666 q 426 666 468 642 q 510 619 538 575 q 566 531 581 469 q 595 408 595 331 z"},"w":{"x_min":0,"x_max":751,"ha":751,"o":"m 742 446 l 742 465 l 595 465 l 595 446 q 611 446 621 443 q 630 440 635 436 q 641 432 642 427 q 644 423 644 420 q 644 405 633 376 l 536 120 l 430 387 q 426 394 426 401 q 425 408 426 414 q 428 421 430 426 q 433 431 436 434 q 443 440 456 442 q 469 445 488 446 l 488 465 l 266 465 l 266 446 q 282 445 292 443 q 303 441 308 438 q 328 426 340 396 l 366 327 l 266 109 l 166 376 q 157 399 157 414 q 158 429 166 437 q 175 444 202 446 l 202 465 l 6 465 l 6 446 q 21 443 33 438 q 45 433 51 426 q 59 419 65 407 q 72 395 80 376 l 230 -15 l 249 -15 l 384 283 l 500 -15 l 521 -15 l 676 387 q 697 440 742 446 z"},"-":{"x_min":0,"x_max":346,"ha":346,"o":"m 290 195 l 290 258 l 46 258 l 46 195 z"},"E":{"x_min":0,"x_max":635,"ha":635,"o":"m 612 173 l 591 173 q 567 130 549 104 q 530 78 509 63 q 488 48 461 42 q 434 37 391 37 l 275 37 q 250 37 238 43 q 226 49 221 59 q 217 69 217 83 q 217 97 217 114 l 217 341 l 368 341 q 403 341 423 335 q 443 329 454 317 q 464 305 469 285 q 473 266 477 239 l 496 239 l 496 478 l 477 478 q 473 452 469 433 q 464 415 454 402 q 443 390 423 385 q 403 379 368 379 l 217 379 l 217 651 l 407 651 q 438 651 458 647 q 479 643 492 635 q 506 627 514 616 q 521 606 526 594 q 531 581 533 567 q 536 553 540 538 l 560 538 l 552 688 l 22 688 l 22 670 l 46 670 q 67 670 83 664 q 98 659 107 649 q 120 635 120 569 l 120 122 q 120 100 119 85 q 118 70 115 60 q 113 51 109 45 q 105 40 100 35 q 95 31 87 28 q 80 24 72 22 q 64 21 57 20 q 50 19 46 19 l 22 19 l 22 0 l 552 0 z"},"s":{"x_min":0,"x_max":405,"ha":405,"o":"m 368 117 q 368 162 341 196 q 314 231 261 256 l 186 291 q 162 302 146 313 q 131 325 123 337 q 115 349 112 361 q 109 374 110 388 q 110 415 132 432 q 154 449 200 449 q 222 449 241 443 q 260 437 276 422 q 292 407 304 382 q 317 357 326 320 l 343 320 l 343 478 l 326 478 q 320 466 315 463 q 311 460 303 460 q 297 460 287 463 q 276 466 262 469 q 249 472 233 475 q 218 478 202 478 q 166 478 137 469 q 109 459 90 442 q 71 425 61 403 q 51 380 51 354 q 51 333 56 314 q 62 296 76 279 q 90 262 114 245 q 138 228 175 209 q 213 189 236 174 q 259 159 272 145 q 285 131 289 116 q 293 102 293 85 q 292 71 287 58 q 282 46 271 37 q 261 27 247 22 q 232 16 213 16 q 188 16 165 25 q 143 34 124 52 q 104 70 91 97 q 77 124 70 159 l 53 159 l 53 -7 l 70 -7 q 73 0 78 8 q 82 16 88 16 q 100 15 114 10 q 127 4 143 -1 q 159 -6 177 -11 q 194 -15 213 -15 q 244 -15 272 -4 q 300 6 322 25 q 343 43 355 67 q 368 91 368 117 z"},">":{"x_min":0,"x_max":804,"ha":804,"o":"m 702 269 l 702 331 l 102 561 l 102 499 l 638 300 l 102 101 l 102 39 z"},"l":{"x_min":0,"x_max":289,"ha":289,"o":"m 267 0 l 267 19 q 252 19 242 20 q 231 21 224 24 q 217 26 213 29 q 208 33 205 37 q 202 42 199 47 q 197 52 195 60 q 193 68 193 79 q 192 89 192 105 l 192 722 l 170 722 l 30 666 l 39 648 q 50 652 58 654 q 66 656 72 656 q 78 656 83 654 q 88 652 93 649 q 97 645 99 641 q 102 636 104 624 q 105 612 106 589 q 107 566 107 527 l 107 105 q 107 73 103 58 q 99 42 93 35 q 89 30 84 27 q 80 23 73 22 q 67 20 59 20 q 51 19 39 19 l 39 0 z"},"8":{"x_min":0,"x_max":513,"ha":513,"o":"m 447 152 q 447 167 445 182 q 444 196 439 212 q 434 227 424 244 q 414 260 396 280 q 379 299 354 321 q 328 343 292 370 q 327 390 353 408 q 379 426 396 445 q 412 464 420 485 q 428 506 428 531 q 428 557 417 583 q 406 608 385 628 q 363 648 331 661 q 299 673 258 673 q 212 673 177 660 q 141 647 116 626 q 91 604 77 577 q 64 549 64 519 q 64 498 70 476 q 76 454 90 430 q 104 407 128 383 q 152 358 189 333 q 127 297 93 251 q 59 206 59 149 q 59 119 72 90 q 84 61 108 39 q 133 16 169 2 q 205 -11 251 -11 q 288 -11 317 -4 q 346 4 368 17 q 390 30 405 46 q 420 63 429 81 q 438 99 443 117 q 447 136 447 152 z m 357 536 q 357 514 353 496 q 349 478 338 461 q 328 444 310 427 q 292 410 264 390 q 229 412 205 432 q 181 452 167 471 q 152 490 146 508 q 139 527 139 547 q 139 567 146 585 q 153 603 167 616 q 180 629 199 637 q 218 645 241 645 q 271 645 293 636 q 314 627 329 612 q 343 597 350 578 q 357 558 357 536 z m 370 125 q 370 105 364 86 q 358 66 345 51 q 332 36 311 26 q 290 17 260 17 q 221 17 197 33 q 173 49 159 72 q 145 94 140 119 q 135 145 135 163 q 135 181 139 200 q 143 220 152 240 q 161 260 177 279 q 192 297 215 313 q 269 274 300 248 q 332 222 347 201 q 362 181 366 164 q 370 146 370 125 z"},"\\":{"x_min":0,"x_max":320,"ha":320,"o":"m 279 -17 l 59 676 l 9 676 l 228 -17 z"},"e":{"x_min":0,"x_max":462,"ha":462,"o":"m 432 170 l 416 180 q 403 148 389 126 q 375 105 358 92 q 341 79 322 74 q 302 68 280 69 q 246 69 215 84 q 184 100 161 128 q 137 156 124 197 q 110 238 110 290 l 432 290 q 432 334 419 369 q 405 404 381 429 q 357 453 325 466 q 292 479 254 479 q 207 479 167 462 q 127 445 99 412 q 70 380 54 333 q 38 286 38 227 q 38 171 54 127 q 70 82 98 51 q 126 19 163 2 q 200 -15 241 -15 q 281 -15 314 1 q 347 17 372 43 q 396 69 411 103 q 427 136 432 170 z m 326 319 l 110 319 q 113 349 124 372 q 134 395 150 411 q 166 427 185 435 q 205 443 225 443 q 238 443 255 438 q 272 433 288 419 q 304 405 315 381 q 326 357 326 319 z"},"b":{"x_min":0,"x_max":520,"ha":520,"o":"m 484 251 q 484 304 469 346 q 455 389 431 418 q 406 447 374 463 q 342 478 306 478 q 228 478 160 385 l 160 722 l 136 722 l -4 666 l 3 648 q 27 656 39 656 q 51 656 59 649 q 63 645 67 640 q 70 635 72 623 q 73 611 74 588 q 75 565 75 526 l 75 45 q 120 14 162 0 q 204 -15 244 -15 q 292 -15 335 5 q 379 25 412 61 q 445 96 464 145 q 484 194 484 251 z m 396 222 q 396 172 385 135 q 374 98 355 73 q 337 48 315 35 q 292 23 270 23 q 241 23 213 36 q 185 49 160 74 l 160 353 q 179 371 195 382 q 210 393 222 398 q 235 404 245 406 q 256 407 265 407 q 292 407 315 395 q 339 382 357 358 q 375 334 385 300 q 396 266 396 222 z"},"%":{"x_min":0,"x_max":899,"ha":899,"o":"m 821 258 q 821 278 813 299 q 806 320 792 336 q 778 353 757 363 q 736 373 710 373 q 680 373 652 363 q 624 353 599 335 q 574 317 553 293 q 532 269 516 242 q 501 214 492 185 q 484 156 484 128 q 484 99 490 73 q 495 46 510 27 q 525 8 551 -4 q 576 -15 616 -15 q 650 -15 686 4 q 722 24 752 60 q 782 96 802 146 q 821 196 821 258 z m 677 706 l 627 706 q 601 672 560 654 q 519 635 471 634 q 448 633 432 637 q 417 642 405 648 q 394 654 384 662 q 375 669 364 676 q 354 682 339 687 q 325 691 304 691 q 274 691 246 680 q 218 670 193 652 q 168 633 147 609 q 126 585 111 557 q 96 530 88 501 q 79 472 79 444 q 79 375 110 338 q 141 301 203 301 q 226 301 251 310 q 275 320 299 337 q 323 355 344 379 q 365 403 381 432 q 397 461 407 495 q 416 528 416 563 q 416 577 412 592 q 408 607 408 619 q 423 613 445 612 q 466 610 490 613 q 515 615 540 622 q 565 628 589 638 l 225 -15 l 275 -15 z m 794 252 q 794 231 789 205 q 783 180 773 154 q 762 127 748 103 q 733 79 715 59 q 696 40 674 29 q 652 17 628 17 q 610 17 598 23 q 585 28 578 38 q 570 48 567 61 q 563 74 563 89 q 563 112 569 140 q 574 167 584 195 q 595 223 609 249 q 624 275 642 295 q 659 315 680 327 q 700 339 722 339 q 740 339 753 331 q 767 323 776 311 q 785 298 789 283 q 794 267 794 252 z m 389 578 q 389 553 383 525 q 377 497 367 470 q 356 443 341 419 q 326 395 307 377 q 289 358 268 348 q 246 337 223 337 q 204 337 192 343 q 179 348 172 358 q 165 369 161 383 q 158 397 158 414 q 158 450 167 482 q 175 514 189 542 q 202 569 219 591 q 236 613 252 629 q 269 645 284 653 q 298 661 308 661 q 315 661 322 657 q 328 653 336 648 q 344 642 355 636 q 365 630 380 626 q 382 614 386 602 q 389 591 389 578 z"},"m":{"x_min":0,"x_max":809,"ha":809,"o":"m 805 0 l 805 19 q 784 19 771 22 q 757 26 749 35 q 741 45 738 62 q 735 79 735 105 l 735 306 q 735 353 726 386 q 718 418 702 439 q 686 459 663 469 q 640 478 612 478 q 592 478 574 474 q 556 470 537 459 q 518 448 496 429 q 475 410 449 380 q 443 405 432 424 q 421 442 405 455 q 390 467 371 472 q 352 478 331 478 q 314 478 297 474 q 280 470 261 460 q 243 449 220 430 q 198 411 170 380 l 170 478 l 148 478 l 7 422 l 15 404 q 43 414 58 411 q 72 408 78 392 q 84 377 85 349 q 85 322 85 283 l 85 105 q 85 78 82 61 q 80 44 72 35 q 64 25 51 22 q 37 19 15 19 l 15 0 l 245 0 l 245 19 q 223 19 208 21 q 193 24 185 33 q 177 42 173 59 q 170 76 170 105 l 170 355 q 181 366 194 378 q 207 389 222 398 q 237 407 254 413 q 271 419 289 419 q 307 419 322 413 q 336 407 347 393 q 357 380 363 358 q 368 337 368 306 l 368 105 q 368 83 367 67 q 367 51 360 40 q 353 30 337 24 q 322 19 292 19 l 292 0 l 528 0 l 528 19 q 501 19 486 23 q 471 27 464 37 q 457 47 455 64 q 453 80 453 105 l 453 355 q 472 374 489 386 q 505 398 521 405 q 536 412 549 415 q 562 418 573 418 q 593 418 607 412 q 622 406 631 393 q 641 380 645 359 q 650 337 650 306 l 650 105 q 650 82 648 65 q 647 49 640 39 q 633 28 618 24 q 603 19 575 19 l 575 0 z"},"#":{"x_min":0,"x_max":520,"ha":520,"o":"m 502 217 l 502 259 l 372 259 l 408 433 l 502 433 l 502 473 l 415 473 l 463 704 l 421 704 l 372 473 l 201 473 l 246 704 l 205 704 l 159 473 l 18 473 l 18 433 l 149 433 l 113 259 l 18 259 l 18 217 l 105 217 l 58 -15 l 101 -15 l 149 217 l 321 217 l 275 -15 l 316 -15 l 363 217 z m 365 433 l 329 259 l 156 259 l 192 433 z"},",":{"x_min":0,"x_max":346,"ha":346,"o":"m 229 10 q 229 34 222 51 q 215 68 204 80 q 193 91 180 96 q 167 102 155 102 q 126 102 108 87 q 90 71 90 44 q 90 30 95 21 q 101 11 109 4 q 118 -2 127 -5 q 137 -8 145 -8 q 152 -8 157 -7 q 162 -7 165 -6 q 169 -5 173 -5 q 176 -4 181 -4 q 187 -4 188 -7 q 190 -10 190 -16 q 190 -28 184 -42 q 179 -57 168 -71 q 158 -85 143 -99 q 128 -112 109 -123 l 120 -143 q 138 -134 157 -120 q 176 -105 192 -85 q 208 -65 219 -41 q 229 -17 229 10 z"},"n":{"x_min":0,"x_max":520,"ha":520,"o":"m 518 0 l 518 19 q 495 19 480 23 q 466 26 459 36 q 451 46 448 62 q 446 79 446 105 l 446 304 q 446 344 439 376 q 433 408 419 430 q 405 453 382 466 q 358 478 324 478 q 250 478 168 381 l 168 478 l 147 478 l 5 422 l 13 404 q 51 419 68 405 q 72 401 75 397 q 78 392 79 380 q 81 367 82 343 q 83 319 83 278 l 83 105 q 83 79 80 62 q 78 45 70 35 q 62 26 49 22 q 35 19 13 19 l 13 0 l 244 0 l 244 19 q 219 19 204 22 q 189 25 181 35 q 173 44 170 61 q 168 78 168 105 l 168 350 q 198 383 229 400 q 259 416 288 416 q 329 416 345 387 q 361 358 361 295 l 361 105 q 361 78 359 61 q 356 44 349 35 q 341 26 326 22 q 311 19 285 19 l 285 0 z"},"h":{"x_min":0,"x_max":520,"ha":520,"o":"m 515 0 l 515 19 q 492 19 478 23 q 464 26 457 35 q 449 44 447 59 q 445 73 445 95 l 445 269 q 445 292 444 316 q 443 340 440 364 q 436 387 429 407 q 421 428 408 444 q 395 459 374 469 q 354 478 324 478 q 306 478 287 474 q 268 471 249 460 q 229 450 210 431 q 190 412 170 382 l 170 722 l 146 722 l 6 666 l 14 648 q 25 652 35 654 q 44 656 51 656 q 71 656 78 639 q 85 623 85 586 l 85 95 q 85 74 83 60 q 80 45 73 36 q 65 27 51 23 q 37 19 14 19 l 14 0 l 244 0 l 244 19 q 219 19 205 22 q 190 25 182 34 q 175 42 172 57 q 170 72 170 95 l 170 350 q 189 372 205 385 q 221 398 235 406 q 249 413 261 415 q 273 417 285 417 q 315 417 331 402 q 347 388 353 365 q 359 343 360 317 q 360 292 360 269 l 360 95 q 360 72 356 57 q 353 42 345 33 q 336 25 322 22 q 307 19 285 19 l 285 0 z"},"z":{"x_min":0,"x_max":462,"ha":462,"o":"m 445 446 l 445 465 l 55 465 l 52 336 l 72 336 q 74 356 77 372 q 81 387 86 397 q 91 407 98 413 q 104 419 112 423 q 121 426 137 428 q 153 430 177 430 l 330 430 l 21 19 l 21 0 l 431 0 l 437 142 l 419 142 q 415 110 411 92 q 407 74 401 65 q 396 55 389 51 q 382 47 374 43 q 355 34 303 34 l 133 34 z"},"B":{"x_min":0,"x_max":676,"ha":676,"o":"m 636 188 q 636 217 627 244 q 618 270 599 292 q 580 313 550 329 q 521 344 480 352 q 511 362 535 377 q 558 393 574 412 q 589 432 597 456 q 605 479 605 504 q 605 524 600 546 q 596 568 584 588 q 572 608 551 627 q 530 645 498 658 q 466 672 421 680 q 375 688 315 688 l 18 688 l 18 670 l 43 670 q 63 670 78 664 q 92 659 102 648 q 116 631 116 567 l 116 122 q 116 93 113 74 q 110 55 105 47 q 86 19 43 19 l 18 19 l 18 0 l 342 0 q 386 0 421 3 q 455 6 482 12 q 509 18 530 27 q 550 37 567 50 q 583 63 596 80 q 609 96 618 114 q 627 132 632 151 q 636 170 636 188 z m 498 509 q 498 477 488 451 q 477 426 455 408 q 432 391 397 381 q 361 372 311 372 q 281 372 257 373 q 234 375 214 379 l 214 644 q 234 649 257 652 q 280 654 306 654 q 355 654 391 642 q 427 630 451 611 q 475 591 486 564 q 498 538 498 509 z m 519 180 q 519 148 507 122 q 495 96 471 77 q 447 58 412 47 q 377 36 331 36 q 302 36 273 40 q 244 43 214 50 l 214 332 q 228 335 250 336 q 272 337 304 337 q 356 337 397 325 q 437 314 464 293 q 491 272 505 243 q 519 214 519 180 z"},"K":{"x_min":0,"x_max":751,"ha":751,"o":"m 760 0 l 760 19 q 737 21 716 27 q 694 33 672 44 q 627 66 565 129 l 311 382 l 416 487 q 449 520 471 542 q 493 564 508 579 q 522 594 532 603 q 542 612 550 618 q 557 625 565 630 q 573 635 584 642 q 598 651 609 656 q 620 662 630 665 q 640 667 650 669 q 659 670 670 670 l 670 688 l 416 688 l 416 670 l 432 670 q 458 670 468 661 q 478 651 478 641 q 478 632 475 623 q 472 615 465 605 q 449 582 404 533 q 358 485 283 415 q 253 387 236 371 q 218 355 213 351 l 213 567 q 213 589 214 603 q 215 617 218 626 q 220 635 223 641 q 226 646 230 650 q 241 661 256 665 q 272 670 287 670 l 311 670 l 311 688 l 18 688 l 18 670 l 42 670 q 50 670 60 668 q 69 666 77 662 q 86 659 93 655 q 99 651 102 648 q 109 640 112 621 q 115 602 115 567 l 115 122 q 115 59 104 44 q 83 19 42 19 l 18 19 l 18 0 l 311 0 l 311 19 l 287 19 q 269 19 251 25 q 234 32 225 44 q 221 50 219 56 q 216 63 215 72 q 214 82 213 94 q 213 105 213 122 l 213 284 l 243 314 l 450 108 q 461 97 469 88 q 477 80 481 73 q 485 67 487 62 q 489 56 488 51 q 486 38 474 28 q 461 19 432 19 l 432 0 z"},"R":{"x_min":0,"x_max":694,"ha":694,"o":"m 703 0 l 703 19 q 674 22 652 29 q 630 35 610 48 q 589 62 570 83 q 550 104 527 137 l 386 335 q 429 345 461 362 q 493 378 514 401 q 535 424 545 452 q 555 480 555 512 q 555 542 546 567 q 536 592 520 613 q 503 633 480 648 q 458 663 431 672 q 405 680 364 684 q 323 688 268 688 l 18 688 l 18 670 l 44 670 q 63 670 78 664 q 92 659 103 648 q 116 630 116 567 l 116 122 q 116 62 106 47 q 89 19 44 19 l 18 19 l 18 0 l 313 0 l 313 19 l 286 19 q 247 19 228 42 q 213 57 213 122 l 213 322 q 222 320 229 320 q 236 319 244 320 q 252 320 262 320 q 272 321 286 322 l 519 0 z m 441 504 q 441 471 429 444 q 417 417 392 396 q 368 376 330 365 q 292 354 242 354 l 213 354 l 213 641 q 266 650 293 650 q 327 649 354 638 q 381 627 401 608 q 420 589 430 563 q 441 536 441 504 z"},"T":{"x_min":0,"x_max":633,"ha":633,"o":"m 609 527 l 603 688 l 32 688 l 25 527 l 48 527 q 54 597 91 624 q 98 630 106 635 q 113 639 124 641 q 134 644 149 645 q 164 646 184 646 l 266 646 l 266 120 q 266 90 263 72 q 261 54 256 46 q 246 32 231 25 q 216 19 194 19 l 169 19 l 169 0 l 461 0 l 461 19 l 437 19 q 396 19 378 40 q 371 48 367 68 q 364 88 364 120 l 364 646 l 461 646 q 496 646 517 637 q 539 629 555 612 q 561 606 566 599 q 571 592 575 582 q 579 572 582 559 q 585 545 587 527 z"},"P":{"x_min":0,"x_max":578,"ha":578,"o":"m 542 498 q 542 525 536 547 q 530 568 519 586 q 508 604 494 618 q 479 632 463 645 q 445 659 422 667 q 399 675 374 680 q 349 685 322 686 q 295 688 269 688 l 18 688 l 18 670 l 43 670 q 63 670 78 664 q 92 659 102 648 q 115 630 115 567 l 115 122 q 115 92 112 73 q 109 55 105 47 q 87 19 43 19 l 18 19 l 18 0 l 312 0 l 312 19 l 286 19 q 247 19 228 42 q 220 49 216 70 q 213 90 213 122 l 213 313 q 232 311 245 310 q 257 309 267 308 q 276 308 283 308 q 291 308 301 308 q 369 308 415 323 q 461 337 489 363 q 518 389 530 424 q 542 458 542 498 z m 426 488 q 425 455 415 427 q 404 400 387 381 q 369 362 346 351 q 322 341 296 341 q 281 341 260 342 q 239 343 213 347 l 213 638 q 233 643 250 645 q 267 648 280 648 q 316 648 344 635 q 371 622 389 599 q 408 577 417 548 q 426 519 426 488 z"},"|":{"x_min":0,"x_max":208,"ha":208,"o":"m 125 -225 l 125 722 l 82 722 l 82 -225 z"},"t":{"x_min":0,"x_max":289,"ha":289,"o":"m 290 85 l 270 85 q 261 64 246 53 q 231 42 213 43 q 203 43 195 47 q 187 51 180 60 q 174 68 170 83 q 167 98 167 120 l 167 430 l 276 430 l 276 465 l 167 465 l 167 618 l 152 618 q 141 593 133 577 q 125 561 119 550 q 113 539 107 531 q 101 523 94 515 q 74 492 51 473 q 28 454 8 446 l 8 430 l 82 430 l 82 108 q 82 69 90 45 q 98 21 111 7 q 125 -6 141 -10 q 157 -15 174 -15 q 189 -15 206 -9 q 223 -3 239 9 q 255 21 268 40 q 282 59 290 85 z"},"M":{"x_min":0,"x_max":925,"ha":925,"o":"m 903 0 l 903 19 l 879 19 q 838 19 820 40 q 805 56 805 120 l 805 569 q 805 598 808 616 q 811 635 816 644 q 836 670 879 670 l 903 670 l 903 688 l 708 688 l 462 150 l 212 688 l 18 688 l 18 670 q 33 670 45 668 q 56 667 65 665 q 73 662 80 659 q 86 655 92 651 q 105 641 110 621 q 114 601 114 569 l 114 120 q 114 90 111 72 q 108 54 104 46 q 93 32 79 25 q 64 19 42 19 l 18 19 l 18 0 l 257 0 l 257 19 l 233 19 q 190 19 174 40 q 159 56 159 120 l 159 579 l 425 0 l 442 0 l 708 579 l 708 120 q 708 90 705 72 q 702 54 697 46 q 687 32 672 25 q 657 19 634 19 l 610 19 l 610 0 z"},"g":{"x_min":0,"x_max":520,"ha":520,"o":"m 501 424 q 501 442 494 444 q 487 445 481 446 q 475 446 467 445 q 459 444 449 444 q 438 443 423 443 q 399 443 381 448 q 363 454 344 460 q 326 467 305 472 q 284 478 254 478 q 210 478 176 464 q 142 450 118 427 q 94 404 82 374 q 69 344 69 311 q 69 290 74 269 q 80 248 91 229 q 102 210 119 195 q 135 180 157 170 q 131 147 115 131 q 99 114 90 102 q 82 89 79 79 q 76 69 76 60 q 76 42 88 31 q 101 19 124 4 q 97 -23 79 -44 q 61 -64 50 -79 q 39 -95 35 -106 q 31 -118 31 -128 q 31 -146 48 -163 q 65 -180 94 -194 q 123 -208 159 -217 q 196 -225 235 -225 q 291 -225 338 -210 q 386 -194 421 -169 q 456 -144 475 -111 q 495 -78 495 -43 q 495 -16 486 2 q 476 21 461 33 q 446 45 428 52 q 409 59 391 62 q 373 65 357 66 q 342 66 333 67 q 276 68 243 70 q 209 71 191 73 q 172 75 165 78 q 157 81 152 85 q 144 92 144 102 q 144 112 149 122 q 154 133 163 143 q 172 153 182 160 q 200 155 218 152 q 236 150 253 150 q 296 150 331 163 q 365 175 388 197 q 412 218 424 247 q 437 275 436 307 q 436 336 429 359 q 421 382 408 400 l 468 400 q 469 400 474 400 q 479 400 486 401 q 493 401 496 404 q 499 407 500 414 q 501 421 501 424 z m 346 294 q 346 262 339 240 q 333 217 321 203 q 309 188 293 182 q 277 175 259 175 q 234 175 216 187 q 197 198 184 219 q 171 240 164 269 q 157 298 157 333 q 157 365 164 388 q 171 411 183 425 q 195 440 211 447 q 227 454 245 454 q 269 454 287 442 q 306 431 319 410 q 333 389 339 359 q 346 330 346 294 z m 458 -62 q 458 -81 447 -99 q 437 -117 414 -131 q 392 -145 359 -154 q 325 -163 280 -163 q 241 -163 208 -157 q 176 -152 153 -142 q 130 -132 117 -119 q 104 -105 104 -89 q 104 -77 107 -66 q 110 -56 117 -45 q 123 -35 132 -24 q 141 -13 152 0 q 183 -4 227 -7 q 271 -9 328 -11 q 368 -13 394 -17 q 419 -20 433 -26 q 447 -32 453 -41 q 458 -50 458 -62 z"},"j":{"x_min":0,"x_max":289,"ha":289,"o":"m 203 623 q 203 633 198 643 q 194 652 187 659 q 179 667 170 671 q 161 675 151 675 q 141 675 131 671 q 122 667 115 659 q 107 652 103 643 q 99 633 99 623 q 99 600 114 585 q 128 571 151 571 q 162 571 172 575 q 181 579 188 586 q 195 594 199 603 q 203 613 203 623 z m 195 10 l 195 478 l 173 478 l 32 422 l 38 404 q 60 412 73 412 q 85 413 95 405 q 99 401 102 394 q 105 387 107 374 q 108 360 109 338 q 110 316 110 283 l 110 -48 q 110 -71 109 -96 q 109 -120 105 -140 q 101 -159 91 -172 q 81 -184 63 -184 q 55 -184 44 -179 q 33 -173 22 -162 q 5 -146 -7 -138 q -20 -130 -38 -130 q -55 -130 -68 -143 q -80 -155 -80 -174 q -80 -182 -74 -191 q -69 -200 -58 -207 q -47 -215 -30 -220 q -13 -225 11 -225 q 51 -225 84 -211 q 118 -197 143 -168 q 167 -139 181 -95 q 195 -50 195 10 z"},"i":{"x_min":0,"x_max":289,"ha":289,"o":"m 204 623 q 204 633 200 643 q 196 652 189 659 q 182 666 173 670 q 164 674 153 674 q 143 674 133 670 q 124 667 116 660 q 109 653 105 644 q 101 634 101 623 q 101 600 116 585 q 130 571 153 571 q 164 571 173 575 q 183 579 189 586 q 196 593 200 603 q 204 612 204 623 z m 266 0 l 266 19 q 244 19 230 22 q 217 25 209 33 q 201 42 198 57 q 195 72 195 95 l 195 478 l 173 478 l 32 422 l 39 404 q 62 412 75 412 q 96 412 103 395 q 110 377 110 344 l 110 95 q 110 72 107 57 q 104 42 96 34 q 88 25 75 22 q 61 19 39 19 l 39 0 z"},"y":{"x_min":0,"x_max":520,"ha":520,"o":"m 514 446 l 514 465 l 363 465 l 363 446 q 375 446 383 445 q 391 444 396 442 q 400 441 402 439 q 404 437 406 435 q 409 431 410 424 q 411 418 410 410 q 409 403 406 395 q 404 387 400 380 l 296 123 l 183 357 q 175 375 170 388 q 166 401 166 412 q 166 429 180 437 q 193 446 212 446 l 223 446 l 223 465 l 6 465 l 6 446 q 25 444 39 436 q 52 427 62 415 q 72 403 78 391 q 84 378 89 369 l 256 19 l 223 -62 q 214 -84 205 -99 q 196 -114 187 -123 q 178 -132 169 -135 q 161 -139 153 -139 q 150 -139 142 -136 q 133 -133 123 -130 q 112 -127 101 -124 q 90 -121 82 -121 q 56 -121 43 -134 q 30 -146 30 -167 q 30 -179 35 -190 q 40 -200 49 -208 q 59 -216 71 -220 q 84 -225 99 -225 q 121 -225 143 -216 q 166 -207 186 -189 q 207 -172 225 -146 q 243 -121 256 -88 l 445 376 q 454 399 462 412 q 470 426 478 433 q 485 440 494 443 q 503 445 514 446 z"},"@":{"x_min":0,"x_max":958,"ha":958,"o":"m 932 87 l 903 87 q 893 64 876 34 q 860 5 836 -26 q 812 -57 780 -87 q 748 -117 706 -141 q 664 -164 612 -178 q 559 -193 495 -193 q 428 -193 372 -177 q 316 -161 272 -133 q 228 -105 195 -67 q 162 -29 140 16 q 119 61 108 111 q 97 161 97 212 q 97 283 113 347 q 129 410 158 464 q 187 518 227 561 q 267 604 315 634 q 364 664 419 680 q 474 696 532 696 q 600 696 660 675 q 720 653 764 613 q 809 573 835 515 q 861 457 861 384 q 861 332 851 287 q 840 242 823 205 q 806 168 784 139 q 762 111 738 91 q 714 72 691 62 q 667 52 647 52 q 635 52 628 56 q 620 61 616 67 q 611 73 610 80 q 608 86 608 90 q 608 102 612 123 q 617 144 624 170 q 630 196 639 226 q 647 255 656 284 l 714 487 l 635 475 l 619 419 q 617 428 612 440 q 607 453 597 464 q 587 475 571 482 q 555 490 531 490 q 502 490 470 475 q 438 460 407 435 q 376 409 348 374 q 320 339 299 299 q 277 260 265 217 q 252 174 252 133 q 252 105 260 84 q 267 62 280 47 q 292 32 309 24 q 325 16 343 16 q 372 16 400 30 q 428 44 453 66 q 479 87 502 112 q 524 138 543 160 q 538 129 535 103 q 533 77 539 57 q 545 38 562 27 q 579 16 612 16 q 671 16 722 44 q 773 72 811 120 q 849 168 870 234 q 892 299 892 374 q 892 459 863 524 q 834 589 785 633 q 735 677 669 700 q 603 722 529 722 q 474 722 417 708 q 359 694 306 666 q 253 638 206 597 q 159 555 124 500 q 89 445 69 376 q 49 308 49 226 q 49 173 61 119 q 73 65 98 15 q 123 -35 160 -79 q 197 -123 246 -155 q 295 -188 357 -206 q 418 -225 492 -225 q 562 -225 621 -208 q 679 -192 725 -165 q 772 -139 808 -105 q 843 -71 869 -36 q 894 -1 910 31 q 926 63 932 87 z m 572 261 q 559 228 538 195 q 518 162 493 135 q 468 109 442 93 q 415 77 390 77 q 381 77 371 82 q 360 86 352 95 q 343 104 338 117 q 332 130 332 149 q 332 170 340 202 q 349 234 363 270 q 377 305 397 340 q 417 375 439 403 q 462 431 487 448 q 512 466 537 466 q 561 466 577 452 q 592 438 598 412 q 603 385 597 347 q 591 309 572 261 z"},".":{"x_min":0,"x_max":346,"ha":346,"o":"m 223 55 q 223 68 218 80 q 212 92 203 101 q 194 110 182 116 q 169 121 156 121 q 143 121 131 116 q 119 110 110 101 q 101 92 95 80 q 90 68 90 55 q 90 41 95 29 q 101 17 110 8 q 119 -1 131 -7 q 143 -12 156 -12 q 169 -12 182 -7 q 194 -1 203 8 q 212 17 218 29 q 223 41 223 55 z"},"p":{"x_min":0,"x_max":520,"ha":520,"o":"m 485 250 q 485 298 472 340 q 459 382 437 412 q 414 443 382 460 q 350 478 311 478 q 290 478 271 472 q 251 467 233 454 q 215 441 197 420 q 179 399 161 368 l 161 477 l 142 477 l -3 419 l 3 402 q 26 411 38 410 q 50 409 58 404 q 64 399 68 394 q 71 389 73 381 q 75 372 75 360 q 75 347 75 328 l 75 -112 q 75 -141 73 -158 q 71 -176 63 -186 q 55 -196 39 -199 q 22 -203 -6 -204 l -6 -223 l 240 -223 l 240 -204 q 212 -203 197 -199 q 181 -195 173 -185 q 165 -175 163 -158 q 161 -141 161 -114 l 161 27 q 178 12 193 4 q 208 -4 222 -9 q 236 -13 248 -14 q 261 -15 272 -15 q 319 -15 359 6 q 398 27 426 63 q 454 99 469 147 q 485 195 485 250 z m 404 202 q 404 159 394 124 q 384 90 367 66 q 349 42 324 29 q 300 16 270 16 q 248 16 230 23 q 212 29 199 40 q 186 50 177 63 q 169 77 166 90 q 164 100 162 118 q 161 136 161 164 l 161 338 q 177 355 190 369 q 204 384 216 394 q 229 404 242 410 q 255 416 270 416 q 297 416 322 404 q 346 391 364 365 q 382 339 393 299 q 404 258 404 202 z"},"X":{"x_min":0,"x_max":751,"ha":751,"o":"m 738 0 l 738 19 q 715 21 698 26 q 681 31 663 46 q 646 61 624 88 q 603 115 572 161 l 424 382 l 562 556 q 584 584 602 605 q 619 626 637 640 q 654 653 675 661 q 695 668 723 670 l 723 688 l 478 688 l 478 670 q 497 669 508 668 q 520 667 527 665 q 535 662 539 658 q 543 655 547 650 q 557 637 550 619 q 543 601 521 573 l 399 418 l 293 576 q 281 594 275 606 q 270 619 269 628 q 268 637 272 643 q 276 650 284 656 q 301 668 340 670 l 340 688 l 22 688 l 22 670 q 47 668 69 662 q 91 656 112 642 q 133 627 155 602 q 177 577 204 538 l 340 339 l 177 133 q 160 111 139 91 q 119 71 97 55 q 75 39 52 29 q 29 20 7 19 l 7 0 l 252 0 l 252 19 q 232 20 219 23 q 206 26 199 31 q 191 37 189 43 q 186 50 186 58 q 186 64 187 70 q 188 75 191 82 q 195 88 201 96 q 207 105 217 118 l 362 303 l 478 126 q 492 104 500 90 q 508 77 510 68 q 513 59 511 52 q 509 45 504 38 q 497 27 483 23 q 469 19 443 19 l 443 0 z"},"*":{"x_min":0,"x_max":507,"ha":507,"o":"m 439 366 q 447 381 443 394 q 439 407 425 415 q 416 420 402 423 q 389 426 370 430 q 352 435 329 443 q 306 451 277 468 q 306 485 329 494 q 352 502 370 507 q 388 512 402 515 q 415 518 424 523 q 438 531 443 544 q 448 556 439 572 q 430 587 416 590 q 402 592 388 584 q 379 579 371 569 q 362 559 349 546 q 336 532 317 516 q 298 500 269 484 q 269 518 273 542 q 277 566 282 583 q 288 601 292 614 q 296 626 296 636 q 296 653 288 664 q 279 675 261 675 q 242 675 234 664 q 225 653 225 636 q 225 626 229 614 q 233 601 239 583 q 244 566 248 542 q 252 518 252 484 q 223 500 204 516 q 185 531 171 544 q 158 557 149 567 q 141 577 132 582 q 118 590 105 589 q 92 587 82 571 q 74 556 78 543 q 82 530 96 522 q 105 517 118 514 q 132 511 150 507 q 168 502 191 493 q 214 485 243 468 q 214 451 191 443 q 168 434 150 429 q 132 424 119 422 q 106 419 97 414 q 83 406 78 393 q 73 381 82 365 q 91 350 105 347 q 119 345 133 353 q 142 358 150 368 q 159 378 172 391 q 185 404 204 420 q 223 436 252 453 q 252 419 248 395 q 244 371 239 353 q 233 335 229 323 q 225 311 225 301 q 225 284 234 273 q 242 262 261 262 q 279 262 288 273 q 296 284 296 301 q 296 311 292 323 q 288 335 282 353 q 277 371 273 395 q 269 419 269 453 q 298 436 317 421 q 336 405 350 393 q 363 380 372 370 q 380 360 389 355 q 403 347 416 348 q 429 350 439 366 z"},"Y":{"x_min":0,"x_max":751,"ha":751,"o":"m 736 670 l 736 688 l 496 688 l 496 670 q 510 670 521 668 q 531 666 538 663 q 545 660 550 655 q 554 651 557 646 q 571 627 564 605 q 558 583 535 549 l 399 337 l 256 558 q 240 583 233 600 q 225 617 225 625 q 225 639 232 647 q 240 656 250 661 q 260 667 271 668 q 282 670 289 670 l 304 670 l 304 688 l 9 688 l 9 670 q 29 670 48 661 q 66 652 79 642 q 93 631 105 613 q 117 596 134 571 l 322 283 l 322 120 q 322 90 319 72 q 316 54 312 46 q 301 32 287 25 q 272 19 250 19 l 226 19 l 226 0 l 518 0 l 518 19 l 496 19 q 453 19 435 40 q 420 56 420 120 l 420 292 l 587 553 q 603 578 615 596 q 627 614 638 625 q 649 637 661 646 q 673 654 685 660 q 697 665 707 667 q 717 670 723 670 z"},"c":{"x_min":0,"x_max":462,"ha":462,"o":"m 427 177 l 413 184 q 398 148 382 125 q 365 102 347 89 q 329 76 310 71 q 290 66 269 66 q 232 66 204 83 q 176 101 157 130 q 138 159 128 197 q 118 235 118 276 q 118 312 126 343 q 135 374 150 396 q 166 419 189 432 q 211 445 240 445 q 275 445 292 428 q 309 411 311 384 q 312 363 319 351 q 325 339 333 333 q 341 327 351 326 q 360 324 367 324 q 391 324 403 337 q 415 350 415 367 q 415 387 404 405 q 392 424 370 442 q 326 478 257 478 q 211 478 171 460 q 131 442 101 410 q 70 378 53 333 q 35 287 35 232 q 35 175 51 130 q 66 84 93 52 q 120 20 156 2 q 192 -15 233 -15 q 267 -15 299 -1 q 332 13 358 39 q 384 64 402 99 q 420 134 427 177 z"},"!":{"x_min":0,"x_max":458,"ha":458,"o":"m 240 594 q 240 634 226 654 q 211 675 187 675 q 163 675 149 654 q 136 634 136 594 q 136 584 140 550 q 143 517 149 463 q 156 409 165 336 q 173 263 184 175 l 191 175 q 202 263 211 336 q 220 409 226 463 q 233 517 237 550 q 240 584 240 594 z m 242 44 q 242 55 238 65 q 233 75 226 83 q 218 90 208 94 q 198 98 187 98 q 176 98 167 94 q 157 89 150 82 q 143 75 139 65 q 135 55 135 44 q 135 34 139 24 q 143 15 150 7 q 157 0 167 -4 q 176 -9 187 -9 q 198 -9 208 -5 q 218 0 226 7 q 233 14 238 23 q 242 33 242 44 z"},"/":{"x_min":0,"x_max":317,"ha":317,"o":"m 279 676 l 228 676 l 9 -17 l 59 -17 z"},"[":{"x_min":0,"x_max":346,"ha":346,"o":"m 303 -160 l 303 -138 l 200 -138 q 194 -138 189 -135 q 184 -133 179 -129 q 175 -125 173 -119 q 170 -114 170 -108 l 170 609 q 170 615 173 620 q 175 625 179 630 q 184 634 189 636 q 194 639 200 639 l 303 639 l 303 662 l 95 662 l 95 -155 l 95 -160 z"},"6":{"x_min":0,"x_max":513,"ha":513,"o":"m 474 223 q 474 280 457 319 q 440 358 414 382 q 387 407 355 417 q 323 428 293 428 q 276 428 261 427 q 247 425 232 421 q 217 416 200 407 q 183 399 160 385 q 174 441 200 490 q 227 539 264 576 q 301 613 349 636 q 396 660 454 666 l 451 684 q 390 683 336 667 q 282 651 237 623 q 191 596 155 558 q 119 521 93 477 q 68 434 54 385 q 41 336 41 286 q 41 237 50 196 q 60 154 76 121 q 92 88 115 63 q 137 39 162 22 q 188 5 215 -3 q 242 -11 269 -11 q 310 -11 347 6 q 385 24 413 55 q 441 86 458 129 q 474 172 474 223 z m 384 181 q 384 143 376 113 q 368 83 354 62 q 340 42 319 30 q 299 19 274 19 q 249 19 229 29 q 209 39 193 55 q 177 72 166 95 q 154 117 147 143 q 139 169 135 197 q 132 225 132 252 q 132 280 136 304 q 140 329 153 346 q 165 364 188 374 q 210 384 247 384 q 285 384 311 366 q 337 349 354 321 q 370 292 377 256 q 384 219 384 181 z"},"r":{"x_min":0,"x_max":356,"ha":356,"o":"m 354 422 q 354 434 349 445 q 344 455 335 462 q 326 470 314 474 q 302 478 288 478 q 226 478 168 374 l 168 478 l 148 478 l 4 422 l 9 404 q 30 413 43 412 q 57 411 68 405 q 72 400 75 394 q 78 389 80 377 q 82 365 82 343 q 83 322 83 285 l 83 105 q 83 75 80 58 q 76 41 68 32 q 59 23 45 21 q 31 19 9 19 l 9 0 l 250 0 l 250 19 q 225 19 209 25 q 193 30 184 42 q 175 53 172 69 q 168 86 168 108 l 168 332 q 188 369 205 390 q 223 411 236 411 q 244 411 252 406 q 259 400 268 393 q 276 386 286 381 q 295 375 308 375 q 318 375 326 379 q 334 383 341 389 q 347 396 351 405 q 354 413 354 422 z"},"2":{"x_min":0,"x_max":513,"ha":513,"o":"m 479 134 l 467 142 q 456 121 446 107 q 436 94 425 87 q 414 80 401 78 q 389 75 373 75 l 134 75 q 158 103 189 134 q 221 165 254 199 q 287 232 318 269 q 350 305 375 342 q 400 379 415 418 q 430 456 430 494 q 430 527 418 560 q 407 592 384 617 q 360 643 327 658 q 293 674 249 674 q 206 674 171 659 q 135 645 108 618 q 81 592 63 555 q 45 518 38 474 l 59 470 q 71 505 87 530 q 103 555 122 571 q 142 586 164 594 q 186 601 209 601 q 234 601 258 593 q 282 584 301 566 q 319 548 331 521 q 342 493 342 455 q 342 422 333 391 q 323 360 305 328 q 287 296 261 261 q 235 227 201 188 q 167 150 126 105 q 85 61 37 9 l 37 0 l 427 0 z"},"{":{"x_min":0,"x_max":480,"ha":480,"o":"m 424 -179 l 424 -158 q 396 -155 370 -145 q 345 -136 326 -121 q 307 -105 295 -84 q 284 -63 284 -36 l 284 98 q 284 129 277 151 q 269 172 256 187 q 242 202 224 212 q 206 221 185 228 q 165 234 142 239 q 120 244 98 249 q 120 254 142 258 q 165 263 185 269 q 206 275 224 285 q 242 294 256 309 q 269 324 277 346 q 284 367 284 398 l 284 532 q 284 559 295 580 q 307 602 326 617 q 345 632 370 641 q 396 650 424 654 l 424 675 q 403 675 379 673 q 355 672 331 667 q 307 662 285 653 q 263 643 246 627 q 229 611 218 587 q 208 564 208 531 l 208 382 q 208 355 196 335 q 185 314 165 300 q 146 286 120 277 q 95 268 68 264 l 68 232 q 95 228 120 219 q 146 210 165 196 q 185 181 196 161 q 208 141 208 114 l 208 -34 q 208 -67 218 -91 q 229 -114 246 -130 q 263 -146 285 -156 q 307 -166 331 -171 q 355 -176 379 -178 q 403 -179 424 -179 z"},"9":{"x_min":0,"x_max":513,"ha":513,"o":"m 467 385 q 467 457 448 511 q 429 565 398 601 q 367 637 326 655 q 286 673 243 673 q 199 673 162 656 q 124 639 96 608 q 68 578 53 535 q 37 493 37 442 q 37 385 53 346 q 69 306 94 281 q 120 256 152 245 q 185 234 217 234 q 252 234 289 248 q 326 262 366 292 q 349 235 325 187 q 301 139 266 101 q 230 63 180 37 q 130 10 60 -4 l 67 -23 q 133 -17 189 3 q 244 22 289 51 q 333 80 366 118 q 400 156 422 199 q 444 242 456 289 q 467 336 467 385 z m 370 411 q 370 398 370 384 q 369 370 368 358 q 366 345 364 336 q 362 327 359 323 q 352 315 340 307 q 329 299 315 293 q 302 287 287 283 q 272 280 259 280 q 221 280 196 296 q 171 312 156 338 q 142 365 135 401 q 129 437 129 477 q 129 515 136 546 q 143 577 156 599 q 170 621 190 633 q 209 645 235 645 q 259 645 279 635 q 298 625 313 608 q 329 591 339 569 q 350 546 357 520 q 364 494 367 466 q 370 438 370 411 z"}," ":{"x_min":0,"x_max":317,"ha":317,"o":""},"I":{"x_min":0,"x_max":346,"ha":346,"o":"m 321 0 l 321 19 l 296 19 q 287 19 277 21 q 268 23 259 27 q 250 30 243 35 q 237 39 234 43 q 228 52 225 71 q 222 89 222 122 l 222 567 q 222 598 226 617 q 229 637 235 645 q 255 670 296 670 l 321 670 l 321 688 l 26 688 l 26 670 l 51 670 q 68 670 86 663 q 103 656 113 644 q 117 640 119 634 q 121 627 122 618 q 124 609 124 597 q 124 584 124 567 l 124 122 q 124 59 112 44 q 102 31 87 25 q 72 19 51 19 l 26 19 l 26 0 z"},"H":{"x_min":0,"x_max":751,"ha":751,"o":"m 730 0 l 730 19 l 705 19 q 687 19 669 25 q 652 31 643 44 q 639 50 636 56 q 634 63 633 72 q 631 82 631 94 q 631 105 631 122 l 631 567 q 631 587 631 600 q 631 613 633 622 q 634 630 637 636 q 640 642 646 648 q 657 659 673 664 q 690 670 705 670 l 730 670 l 730 688 l 435 688 l 435 670 l 460 670 q 477 670 493 664 q 509 658 519 648 q 526 641 530 623 q 534 604 534 567 l 534 369 l 213 369 l 213 567 q 213 586 214 600 q 215 614 217 623 q 219 632 222 638 q 225 644 229 648 q 240 660 255 665 q 271 670 288 670 l 313 670 l 313 688 l 18 688 l 18 670 l 43 670 q 50 670 59 668 q 68 666 77 663 q 85 660 92 656 q 99 651 102 647 q 106 642 109 635 q 111 629 113 620 q 115 610 115 598 q 116 585 116 567 l 116 122 q 116 60 104 44 q 83 19 43 19 l 18 19 l 18 0 l 313 0 l 313 19 l 288 19 q 270 19 252 26 q 235 32 226 43 q 219 51 216 69 q 213 87 213 122 l 213 332 l 534 332 l 534 122 q 534 90 531 71 q 527 52 521 44 q 502 19 460 19 l 435 19 l 435 0 z"},"4":{"x_min":0,"x_max":513,"ha":513,"o":"m 477 166 l 477 231 l 375 231 l 375 670 l 329 670 l 17 232 l 17 166 l 297 166 l 297 0 l 375 0 l 375 166 z m 297 231 l 57 231 l 297 569 z"},"~":{"x_min":0,"x_max":566,"ha":566,"o":"m 546 320 l 517 358 q 510 343 499 327 q 487 311 473 298 q 459 285 443 276 q 426 268 408 268 q 394 268 375 274 q 357 279 336 288 q 315 297 292 307 q 269 316 247 325 q 224 334 203 340 q 182 345 164 345 q 136 345 115 335 q 93 324 76 307 q 59 290 45 269 q 32 247 20 225 l 48 188 q 57 204 68 221 q 79 238 92 252 q 105 266 122 275 q 138 284 159 284 q 187 284 217 272 q 247 261 279 247 q 310 232 342 221 q 373 209 403 209 q 428 209 450 219 q 471 228 489 244 q 507 260 521 280 q 535 299 546 320 z"},"D":{"x_min":0,"x_max":751,"ha":751,"o":"m 711 348 q 711 389 703 426 q 696 463 682 497 q 668 530 648 558 q 629 585 605 607 q 581 628 551 644 q 521 659 484 669 q 447 679 401 683 q 355 688 298 688 l 18 688 l 18 670 l 44 670 q 63 670 78 664 q 92 659 103 648 q 116 630 116 567 l 116 122 q 116 93 113 74 q 110 55 105 47 q 97 33 81 26 q 66 19 44 19 l 18 19 l 18 0 l 326 0 q 425 0 498 27 q 570 54 618 102 q 665 149 688 212 q 711 275 711 348 z m 596 343 q 596 271 575 214 q 554 156 517 116 q 480 77 430 56 q 380 35 322 35 q 300 35 273 39 q 246 43 214 50 l 214 635 q 244 643 270 646 q 295 650 318 650 q 378 650 430 629 q 481 607 518 568 q 555 528 575 471 q 596 414 596 343 z"},"^":{"x_min":0,"x_max":410,"ha":410,"o":"m 354 414 l 215 733 l 196 733 l 59 414 l 92 410 l 201 624 l 319 413 z"},"0":{"x_min":0,"x_max":513,"ha":513,"o":"m 467 333 q 467 422 447 487 q 427 551 395 593 q 363 634 324 653 q 286 673 248 673 q 203 673 161 654 q 120 635 87 594 q 54 552 35 486 q 15 420 15 326 q 15 238 34 175 q 53 112 84 71 q 115 31 156 11 q 197 -8 240 -8 q 283 -8 324 12 q 365 31 396 73 q 428 114 448 178 q 467 243 467 333 z m 370 323 q 371 232 361 173 q 352 114 335 80 q 319 45 295 32 q 272 18 244 18 q 229 18 212 23 q 196 29 181 42 q 166 56 153 79 q 140 102 130 137 q 120 172 115 221 q 109 270 109 335 q 109 399 115 447 q 120 495 130 529 q 140 563 153 586 q 166 608 181 622 q 196 635 212 640 q 229 645 244 645 q 271 645 293 630 q 316 615 333 578 q 350 541 360 479 q 370 417 370 323 z"},"F":{"x_min":0,"x_max":578,"ha":578,"o":"m 536 538 l 529 688 l 17 688 l 17 670 l 42 670 q 59 670 74 664 q 90 658 101 647 q 108 640 112 622 q 115 604 115 567 l 115 122 q 115 60 103 44 q 83 19 42 19 l 17 19 l 17 0 l 312 0 l 312 19 l 287 19 q 269 19 252 26 q 234 32 224 45 q 216 53 215 71 q 213 89 213 122 l 213 338 l 338 338 q 364 338 381 332 q 398 326 409 314 q 419 302 424 284 q 428 266 428 241 l 447 241 l 447 474 l 428 474 q 424 447 418 429 q 412 412 402 401 q 392 390 376 385 q 360 381 338 381 l 213 381 l 213 651 l 365 651 q 403 651 428 645 q 453 639 470 626 q 487 613 498 591 q 509 569 518 538 z"},"`":{"x_min":0,"x_max":390,"ha":390,"o":"m 237 529 l 93 674 q 79 688 62 698 q 45 708 32 708 q 17 708 9 698 q 0 687 0 669 q 0 662 5 656 q 9 649 16 644 q 23 638 31 633 q 39 628 45 624 l 195 529 z"},"k":{"x_min":0,"x_max":520,"ha":520,"o":"m 526 0 l 526 19 q 509 19 498 20 q 487 20 482 23 q 474 28 468 31 q 462 34 456 38 q 450 42 444 48 q 438 54 428 65 q 419 75 405 92 q 392 108 372 133 l 250 285 l 372 394 q 389 410 404 420 q 419 430 433 436 q 447 442 464 445 q 481 448 502 449 l 502 465 l 300 465 l 300 449 q 320 447 328 440 q 336 434 336 423 q 336 419 335 415 q 333 411 329 405 q 324 399 314 390 q 305 381 288 367 l 171 268 l 171 722 l 147 722 l 7 666 l 17 648 q 29 653 38 655 q 47 656 53 656 q 59 656 63 654 q 67 651 70 649 q 74 645 77 640 q 80 636 82 623 q 83 611 83 588 q 84 565 84 525 l 84 102 q 84 74 81 58 q 78 42 71 34 q 62 25 47 22 q 31 19 7 19 l 7 0 l 245 0 l 245 19 q 229 19 219 20 q 208 21 202 22 q 195 24 191 27 q 187 31 182 36 q 179 40 177 45 q 174 50 173 58 q 172 66 171 77 q 171 88 171 105 l 171 257 l 313 77 q 320 67 325 61 q 329 54 331 49 q 333 43 333 39 q 333 35 331 31 q 329 24 322 21 q 315 19 300 19 l 300 0 z"},"u":{"x_min":0,"x_max":520,"ha":520,"o":"m 521 43 l 514 61 q 503 57 492 55 q 480 53 473 53 q 465 53 459 56 q 453 60 449 67 q 445 75 444 89 q 442 103 442 123 l 442 465 l 282 465 l 282 446 q 302 445 316 442 q 330 440 339 433 q 349 425 353 412 q 357 399 357 378 l 357 114 q 337 94 321 82 q 304 69 290 61 q 275 54 263 51 q 251 48 241 48 q 216 48 201 57 q 186 66 177 81 q 169 96 167 115 q 164 134 164 154 l 164 465 l 0 465 l 0 446 q 22 446 37 443 q 52 440 61 433 q 71 425 75 411 q 79 397 79 374 l 79 166 q 79 138 83 106 q 86 75 98 48 q 111 21 135 3 q 159 -15 199 -15 q 216 -15 232 -11 q 248 -7 266 4 q 284 15 306 34 q 328 53 357 84 l 357 -15 l 380 -15 z"},"]":{"x_min":0,"x_max":346,"ha":346,"o":"m 250 -160 l 250 -155 l 250 662 l 42 662 l 42 639 l 145 639 q 151 639 156 636 q 162 634 166 630 q 170 625 172 620 q 175 615 175 609 l 175 -108 q 175 -114 172 -119 q 170 -125 166 -129 q 162 -133 156 -135 q 151 -138 145 -138 l 42 -138 l 42 -160 z"},"U":{"x_min":0,"x_max":751,"ha":751,"o":"m 740 670 l 740 688 l 496 688 l 496 670 l 522 670 q 561 670 581 648 q 595 631 595 567 l 595 288 q 595 274 595 248 q 595 222 591 193 q 586 164 576 135 q 566 107 547 89 q 538 80 522 69 q 507 59 486 49 q 465 40 439 33 q 413 27 382 27 q 338 27 308 38 q 278 50 258 69 q 238 88 227 113 q 216 138 210 164 q 205 191 204 217 q 203 244 203 266 l 203 567 q 203 596 207 615 q 210 633 216 643 q 220 650 225 655 q 229 660 235 663 q 241 667 249 668 q 256 670 267 670 l 293 670 l 293 688 l 15 688 l 15 670 l 31 670 q 51 670 65 665 q 80 661 88 650 q 97 640 101 619 q 105 599 105 567 l 105 297 q 105 276 105 252 q 105 228 107 202 q 110 176 116 150 q 122 124 134 100 q 146 75 166 54 q 185 33 214 18 q 243 2 282 -7 q 322 -16 375 -16 q 413 -16 443 -11 q 473 -7 498 2 q 522 12 542 26 q 562 41 581 60 q 599 79 611 103 q 623 127 629 155 q 636 183 639 215 q 641 248 641 283 l 641 563 q 641 621 652 635 q 663 652 678 661 q 693 670 714 670 z"},"o":{"x_min":0,"x_max":520,"ha":520,"o":"m 484 241 q 484 291 468 334 q 451 377 422 409 q 392 441 351 460 q 310 478 260 478 q 208 478 166 457 q 124 435 95 400 q 66 365 51 320 q 35 275 35 228 q 35 180 51 136 q 67 92 96 58 q 125 24 166 5 q 206 -15 255 -15 q 293 -15 325 -4 q 356 6 382 25 q 407 43 427 68 q 446 93 458 121 q 471 150 478 181 q 484 211 484 241 z m 389 202 q 389 152 381 118 q 373 83 358 62 q 343 41 322 31 q 301 22 276 22 q 243 22 216 42 q 188 62 169 96 q 150 130 139 175 q 129 220 129 270 q 129 320 139 354 q 150 388 167 408 q 183 429 204 437 q 224 446 244 446 q 278 446 305 427 q 332 408 350 375 q 369 343 379 298 q 389 254 389 202 z"},"N":{"x_min":0,"x_max":751,"ha":751,"o":"m 736 670 l 736 688 l 497 688 l 497 670 l 520 670 q 561 670 580 648 q 594 634 594 569 l 594 172 l 174 688 l 6 688 l 6 670 q 36 670 56 661 q 77 651 90 639 q 103 627 110 615 q 117 604 122 598 l 122 120 q 122 61 110 46 q 102 32 86 25 q 71 19 48 19 l 24 19 l 24 0 l 264 0 l 264 19 l 240 19 q 199 19 180 40 q 166 57 166 120 l 166 543 l 621 -11 l 639 -11 l 639 569 q 639 598 642 616 q 644 635 650 644 q 658 657 674 663 q 690 670 712 670 z"},"+":{"x_min":0,"x_max":590,"ha":590,"o":"m 540 218 l 540 289 l 322 289 l 322 506 l 256 506 l 256 289 l 38 289 l 38 218 l 256 218 l 256 0 l 322 0 l 322 218 z"},"G":{"x_min":0,"x_max":751,"ha":751,"o":"m 736 357 l 736 375 l 470 375 l 470 357 q 498 356 516 352 q 533 348 543 337 q 553 327 557 307 q 560 288 560 256 l 560 57 q 526 37 490 28 q 455 19 418 19 q 361 19 312 44 q 264 69 228 114 q 192 158 172 220 q 152 282 153 356 q 153 422 170 479 q 187 537 220 579 q 252 621 301 645 q 349 669 411 669 q 450 669 484 659 q 519 649 547 627 q 576 605 599 571 q 623 536 639 487 l 656 487 l 639 704 l 620 704 q 619 690 616 682 q 613 673 609 668 q 606 664 602 662 q 599 660 595 660 q 585 660 570 667 q 555 674 532 682 q 508 690 476 697 q 444 704 401 704 q 341 704 291 688 q 241 673 200 646 q 160 619 129 583 q 98 546 78 505 q 57 464 47 420 q 36 376 36 334 q 36 261 62 197 q 88 133 137 85 q 186 38 257 11 q 328 -16 417 -16 q 482 -16 542 -2 q 602 13 659 46 l 659 256 q 659 284 662 302 q 664 321 670 330 q 684 357 724 357 z"},"q":{"x_min":0,"x_max":520,"ha":520,"o":"m 522 -223 l 522 -204 q 499 -204 484 -201 q 469 -198 460 -189 q 452 -180 449 -163 q 446 -146 446 -120 l 446 478 l 428 478 q 416 469 400 461 q 385 454 370 446 q 352 464 327 471 q 303 478 274 478 q 223 478 179 458 q 135 438 103 403 q 71 368 52 319 q 34 270 34 212 q 34 158 49 115 q 64 73 89 44 q 114 15 145 0 q 176 -15 208 -15 q 228 -15 245 -10 q 263 -5 281 6 q 299 17 319 35 q 338 54 361 81 l 361 -120 q 361 -149 357 -166 q 354 -182 345 -191 q 336 -199 322 -202 q 307 -204 285 -204 l 285 -223 z m 361 112 q 349 99 338 88 q 327 78 316 71 q 304 64 291 61 q 278 57 261 57 q 233 57 207 69 q 182 81 162 105 q 143 128 132 165 q 120 201 120 249 q 120 298 131 334 q 142 371 161 395 q 180 419 205 431 q 230 443 258 443 q 284 443 303 435 q 322 427 335 412 q 348 397 354 377 q 361 356 361 331 z"},"d":{"x_min":0,"x_max":520,"ha":520,"o":"m 524 43 l 518 61 q 498 53 484 52 q 471 51 462 59 q 456 63 453 69 q 450 75 448 88 q 447 101 446 124 q 446 146 446 184 l 446 722 l 423 722 l 283 666 l 290 648 q 311 655 324 656 q 337 657 345 649 q 350 645 353 639 q 355 634 357 622 q 359 609 360 587 q 361 564 361 526 l 361 440 q 340 460 315 470 q 290 479 260 479 q 224 479 193 467 q 162 456 137 437 q 112 417 93 391 q 74 365 61 335 q 47 306 41 275 q 34 243 34 213 q 34 164 50 122 q 65 80 91 50 q 117 20 152 2 q 187 -15 225 -15 q 266 -15 298 2 q 330 20 361 52 l 361 -15 l 384 -15 z m 361 88 q 339 64 317 53 q 295 42 271 42 q 247 42 221 54 q 196 66 175 92 q 154 117 141 157 q 128 197 128 254 q 128 298 138 335 q 148 371 165 397 q 182 422 205 436 q 228 449 254 448 q 279 447 299 436 q 319 424 333 407 q 346 389 354 368 q 361 348 361 328 z"},"1":{"x_min":0,"x_max":513,"ha":513,"o":"m 399 0 l 399 14 q 369 16 350 19 q 332 22 321 28 q 311 35 308 44 q 304 54 304 69 l 304 663 q 304 670 302 671 q 300 672 296 669 l 118 579 l 118 565 q 151 580 172 584 q 192 589 203 585 q 213 581 217 569 q 220 558 220 542 l 220 88 q 220 69 217 56 q 213 42 203 34 q 193 25 174 21 q 155 16 125 14 l 125 0 z"},"5":{"x_min":0,"x_max":513,"ha":513,"o":"m 443 680 l 434 686 q 427 677 419 669 q 410 662 398 662 l 179 662 l 71 423 q 68 417 70 414 q 71 411 78 411 q 115 411 150 405 q 186 398 217 386 q 249 374 276 356 q 302 338 322 315 q 341 292 352 263 q 363 235 363 201 q 363 168 355 143 q 348 117 337 98 q 325 78 310 64 q 295 51 281 42 q 266 34 251 30 q 237 26 227 26 q 211 26 194 36 q 176 45 157 57 q 138 69 119 79 q 100 89 82 89 q 62 89 51 80 q 39 71 39 53 q 39 42 44 30 q 49 19 62 9 q 76 0 100 -6 q 124 -11 162 -11 q 190 -11 221 -5 q 252 1 283 14 q 313 26 341 46 q 369 66 389 95 q 410 123 423 160 q 435 196 435 242 q 435 291 421 328 q 406 366 382 393 q 358 421 328 439 q 297 458 265 470 q 233 482 202 488 q 171 494 146 496 l 186 583 l 389 583 q 400 583 407 594 z"}}}
